<svg width="371" height="260" viewBox="0 0 371 260" fill="none" xmlns="http://www.w3.org/2000/svg">
<g clip-path="url(#clip0_2221_634)">
<path d="M261.95 40.0977H134.92C125.205 40.0244 116.663 47.6266 116.534 58.4839V185.514C116.664 196.371 125.205 203.973 134.921 203.9H261.95C274.516 203.721 280.119 194.231 280.337 185.514V58.4839C280.12 49.7669 274.516 40.2765 261.95 40.0974V40.0977ZM171.061 138.779H155.438V188.652H142.902V138.779H127.28V126.243H171.06L171.061 138.779ZM207.535 186.51C197.498 190.964 179.686 189.34 173.571 175.891L183.645 170.071C188.682 179.641 201.745 179.618 204.31 173.315C206.814 167.161 199.259 164.754 189.883 160.596C185.804 158.493 179.494 155.181 177.6 147.088C176.171 140.98 177.446 131.751 187.002 127.537L187.003 127.537C200.257 122.673 210.434 128.881 213.419 136.044L203.792 142.312C202.369 139.744 199.336 137.118 195.834 136.93C192.659 136.759 189.707 138.42 189.613 142.714C189.801 148.972 198.029 148.971 207.896 155.221C215.125 159.801 216.479 163.301 217.147 169.626C217.642 174.315 216.76 182.416 207.535 186.51H207.535ZM256.401 188.651L244.312 167.161L232.223 188.652H219.911L237.372 156.64L221.03 126.194L221.031 126.194H233.567L244.312 146.117L255.058 126.194H267.37L251.252 156.639L268.713 188.651H256.4L256.401 188.651Z" fill="url(#paint0_linear_2221_634)"/>
</g>
<path d="M76.9923 122C76.9923 123.38 78.1116 124.5 79.4923 124.5C80.873 124.5 81.9923 123.38 81.9923 122L76.9923 122ZM198.436 238.443C197.055 238.443 195.936 239.563 195.936 240.943C195.936 242.324 197.055 243.443 198.436 243.443L198.436 238.443ZM198.436 243.489C199.817 243.489 200.936 242.37 200.936 240.989C200.936 239.608 199.817 238.489 198.436 238.489L198.436 243.489ZM2.85193 238.489C1.47122 238.489 0.351929 239.608 0.351929 240.989C0.351929 242.37 1.47122 243.489 2.85193 243.489L2.85193 238.489ZM369.67 242.757C370.646 241.78 370.646 240.197 369.67 239.221L353.76 223.311C352.784 222.335 351.201 222.335 350.225 223.311C349.248 224.287 349.248 225.87 350.225 226.847L364.367 240.989L350.225 255.131C349.248 256.107 349.248 257.69 350.225 258.666C351.201 259.643 352.784 259.643 353.76 258.666L369.67 242.757ZM248.763 238.489C247.383 238.489 246.263 239.608 246.263 240.989C246.263 242.37 247.383 243.489 248.763 243.489V238.489ZM81.9923 122C81.9923 98.9694 88.8216 76.4562 101.617 57.3072L97.4592 54.5293C84.1148 74.5006 76.9923 97.9805 76.9923 122L81.9923 122ZM101.617 57.3072C114.412 38.1581 132.598 23.2333 153.875 14.4199L151.961 9.80054C129.771 18.9923 110.804 34.558 97.4592 54.5293L101.617 57.3072ZM153.875 14.4199C175.152 5.6066 198.565 3.30064 221.153 7.79364L222.128 2.88971C198.571 -1.79622 174.152 0.608769 151.961 9.80054L153.875 14.4199ZM221.153 7.79364C243.741 12.2866 264.489 23.3768 280.774 39.6617L284.309 36.1262C267.325 19.142 245.686 7.57564 222.128 2.88971L221.153 7.79364ZM280.774 39.6617C297.059 55.9467 308.149 76.6949 312.642 99.2827L317.546 98.3073C312.86 74.7496 301.294 53.1104 284.309 36.1262L280.774 39.6617ZM312.642 99.2827C317.135 121.871 314.829 145.283 306.016 166.561L310.635 168.474C319.827 146.283 322.232 121.865 317.546 98.3073L312.642 99.2827ZM306.016 166.561C297.202 187.838 282.277 206.024 263.128 218.819L265.906 222.976C285.878 209.632 301.443 190.665 310.635 168.474L306.016 166.561ZM263.128 218.819C243.979 231.614 221.466 238.443 198.436 238.443L198.436 243.443C222.455 243.443 245.935 236.321 265.906 222.976L263.128 218.819ZM198.436 238.489L2.85193 238.489L2.85193 243.489L198.436 243.489L198.436 238.489ZM367.902 238.489H248.763V243.489H367.902V238.489Z" fill="url(#paint1_linear_2221_634)"/>
<defs>
<linearGradient id="paint0_linear_2221_634" x1="116.548" y1="121.977" x2="280.328" y2="121.977" gradientUnits="userSpaceOnUse">
<stop stop-color="#F352A1"/>
<stop offset="1" stop-color="#6824EB"/>
</linearGradient>
<linearGradient id="paint1_linear_2221_634" x1="2.88168" y1="121.99" x2="367.882" y2="121.99" gradientUnits="userSpaceOnUse">
<stop stop-color="#F352A1"/>
<stop offset="1" stop-color="#6824EB"/>
</linearGradient>
<clipPath id="clip0_2221_634">
<rect width="163.803" height="163.803" fill="white" transform="translate(116.534 40.0981)"/>
</clipPath>
</defs>
</svg>
