<svg width="76" height="25" viewBox="0 0 76 25" fill="none" xmlns="http://www.w3.org/2000/svg">
<rect width="76" height="25" rx="12.5" fill="#90FFEA"/>
<circle cx="16.5" cy="12.5" r="8" fill="#000001" stroke="#000001"/>
<path d="M30.735 18.14C30.5763 18.14 30.4503 18.112 30.357 18.056C30.273 18 30.2123 17.9253 30.175 17.832C30.1377 17.7293 30.119 17.6173 30.119 17.496V8.984C30.119 8.86267 30.133 8.75533 30.161 8.662C30.1983 8.56867 30.2637 8.494 30.357 8.438C30.4503 8.382 30.581 8.354 30.749 8.354L33.507 8.368C34.1977 8.368 34.823 8.48467 35.383 8.718C35.9523 8.942 36.4377 9.264 36.839 9.684C37.2403 10.104 37.5483 10.6127 37.763 11.21C37.9777 11.8073 38.085 12.47 38.085 13.198C38.085 13.954 37.9777 14.6353 37.763 15.242C37.5483 15.8487 37.2357 16.3667 36.825 16.796C36.4237 17.2253 35.9383 17.5567 35.369 17.79C34.7997 18.0233 34.165 18.14 33.465 18.14H30.735ZM31.379 16.866H33.507C34.1883 16.866 34.7763 16.7213 35.271 16.432C35.7657 16.1333 36.1483 15.718 36.419 15.186C36.6897 14.6447 36.825 14.0053 36.825 13.268C36.825 12.5213 36.6897 11.8773 36.419 11.336C36.1483 10.7947 35.761 10.3793 35.257 10.09C34.7623 9.79133 34.1743 9.642 33.493 9.642H31.379V16.866ZM44.0963 18.238C43.4337 18.238 42.8083 18.112 42.2203 17.86C41.6417 17.608 41.1283 17.258 40.6803 16.81C40.2417 16.3527 39.8963 15.83 39.6443 15.242C39.3923 14.654 39.2663 14.0193 39.2663 13.338C39.2663 12.6473 39.3877 11.9987 39.6303 11.392C39.873 10.776 40.209 10.2393 40.6383 9.782C41.077 9.32467 41.581 8.96533 42.1503 8.704C42.7197 8.44267 43.3263 8.312 43.9703 8.312C44.6423 8.312 45.2677 8.438 45.8463 8.69C46.4343 8.942 46.943 9.29667 47.3723 9.754C47.811 10.202 48.1563 10.7293 48.4083 11.336C48.6603 11.9427 48.7863 12.5913 48.7863 13.282C48.7863 13.9633 48.6603 14.6027 48.4083 15.2C48.1657 15.788 47.8297 16.3153 47.4003 16.782C46.971 17.2393 46.4717 17.5987 45.9023 17.86C45.3423 18.112 44.7403 18.238 44.0963 18.238ZM44.0123 16.964C44.4977 16.964 44.9503 16.8707 45.3703 16.684C45.7997 16.4973 46.173 16.236 46.4903 15.9C46.8077 15.5547 47.055 15.1627 47.2323 14.724C47.419 14.276 47.5123 13.7907 47.5123 13.268C47.5123 12.764 47.419 12.2927 47.2323 11.854C47.055 11.406 46.803 11.014 46.4763 10.678C46.159 10.3327 45.7903 10.062 45.3703 9.866C44.9503 9.67 44.5023 9.572 44.0263 9.572C43.5503 9.572 43.1023 9.67 42.6823 9.866C42.2623 10.062 41.889 10.328 41.5623 10.664C41.245 11 40.993 11.392 40.8063 11.84C40.629 12.288 40.5403 12.7687 40.5403 13.282C40.5403 13.786 40.629 14.262 40.8063 14.71C40.993 15.158 41.245 15.55 41.5623 15.886C41.889 16.222 42.2577 16.488 42.6683 16.684C43.0883 16.8707 43.5363 16.964 44.0123 16.964ZM50.6683 18.14C50.5096 18.14 50.3836 18.112 50.2903 18.056C50.2063 18 50.1456 17.9253 50.1083 17.832C50.0803 17.7293 50.0663 17.6127 50.0663 17.482V8.956C50.0663 8.83467 50.0849 8.732 50.1223 8.648C50.1596 8.564 50.2249 8.49867 50.3183 8.452C50.4209 8.396 50.5609 8.368 50.7383 8.368C50.9436 8.368 51.0883 8.38667 51.1723 8.424C51.2563 8.46133 51.3403 8.52667 51.4243 8.62L56.6883 16.068V8.956C56.6883 8.83467 56.7023 8.732 56.7303 8.648C56.7676 8.564 56.8329 8.49867 56.9263 8.452C57.0196 8.396 57.1549 8.368 57.3323 8.368C57.5003 8.368 57.6263 8.396 57.7103 8.452C57.8036 8.508 57.8643 8.58733 57.8923 8.69C57.9296 8.78333 57.9483 8.89067 57.9483 9.012V17.496C57.9483 17.6173 57.9249 17.7293 57.8783 17.832C57.8409 17.9253 57.7709 18 57.6683 18.056C57.5749 18.112 57.4396 18.14 57.2623 18.14C57.1129 18.14 56.9869 18.1213 56.8843 18.084C56.7909 18.0467 56.7023 17.9767 56.6183 17.874L51.3263 10.482V17.496C51.3263 17.6173 51.3076 17.7293 51.2703 17.832C51.2329 17.9253 51.1676 18 51.0743 18.056C50.9809 18.112 50.8456 18.14 50.6683 18.14ZM60.7624 18.14C60.5757 18.14 60.4357 18.112 60.3424 18.056C60.2584 18.0093 60.2024 17.9393 60.1744 17.846C60.1464 17.7433 60.1324 17.6267 60.1324 17.496V8.998C60.1324 8.75533 60.179 8.592 60.2724 8.508C60.375 8.41467 60.5524 8.368 60.8044 8.368H66.4324C66.563 8.368 66.675 8.382 66.7684 8.41C66.8617 8.438 66.9317 8.49867 66.9784 8.592C67.025 8.68533 67.0484 8.82533 67.0484 9.012C67.0484 9.19867 67.0204 9.33867 66.9644 9.432C66.9177 9.516 66.8477 9.572 66.7544 9.6C66.661 9.628 66.549 9.642 66.4184 9.642H61.3924V12.54H64.8924C65.023 12.54 65.1304 12.554 65.2144 12.582C65.3077 12.61 65.3777 12.666 65.4244 12.75C65.471 12.834 65.4944 12.9647 65.4944 13.142C65.4944 13.31 65.471 13.436 65.4244 13.52C65.3777 13.604 65.3077 13.66 65.2144 13.688C65.121 13.7067 65.0044 13.716 64.8644 13.716H61.3924V16.88H66.4324C66.563 16.88 66.675 16.894 66.7684 16.922C66.8617 16.95 66.9317 17.0107 66.9784 17.104C67.025 17.188 67.0484 17.3233 67.0484 17.51C67.0484 17.6967 67.0204 17.8367 66.9644 17.93C66.9177 18.014 66.8477 18.07 66.7544 18.098C66.661 18.126 66.549 18.14 66.4184 18.14H60.7624Z" fill="#0F0F0F"/>
</svg>
