<svg width="123" height="25" viewBox="0 0 123 25" fill="none" xmlns="http://www.w3.org/2000/svg">
<rect width="123" height="25" rx="12.5" fill="#6824EB"/>
<path d="M24 12.5C24 14.0823 23.5308 15.629 22.6518 16.9446C21.7727 18.2602 20.5233 19.2855 19.0615 19.891C17.5997 20.4965 15.9911 20.655 14.4393 20.3463C12.8874 20.0376 11.462 19.2757 10.3431 18.1569C9.22433 17.038 8.4624 15.6126 8.15372 14.0607C7.84504 12.5089 8.00347 10.9003 8.60897 9.43853C9.21447 7.97672 10.2398 6.72729 11.5554 5.84824C12.871 4.96919 14.4178 4.5 16 4.5M22.8763 8.41165C23.3053 9.13324 23.6181 9.91785 23.8031 10.7367M20.8076 6.10569C21.1426 6.35755 21.4572 6.63534 21.7487 6.9365" stroke="#FFFFFE" stroke-linecap="round"/>
<path d="M29.6927 18.14C29.506 18.14 29.366 18.112 29.2727 18.056C29.1887 18.0093 29.1327 17.9393 29.1047 17.846C29.0767 17.7433 29.0627 17.6267 29.0627 17.496V8.998C29.0627 8.86733 29.0767 8.75533 29.1047 8.662C29.142 8.56867 29.2027 8.49867 29.2867 8.452C29.38 8.396 29.52 8.368 29.7067 8.368C29.8933 8.368 30.0287 8.396 30.1127 8.452C30.206 8.49867 30.262 8.56867 30.2807 8.662C30.3087 8.75533 30.3227 8.872 30.3227 9.012V17.51C30.3227 17.6407 30.3087 17.7527 30.2807 17.846C30.2527 17.9393 30.192 18.0093 30.0987 18.056C30.0147 18.112 29.8793 18.14 29.6927 18.14ZM32.7278 18.14C32.5692 18.14 32.4432 18.112 32.3498 18.056C32.2658 18 32.2052 17.9253 32.1678 17.832C32.1398 17.7293 32.1258 17.6127 32.1258 17.482V8.956C32.1258 8.83467 32.1445 8.732 32.1818 8.648C32.2192 8.564 32.2845 8.49867 32.3778 8.452C32.4805 8.396 32.6205 8.368 32.7978 8.368C33.0032 8.368 33.1478 8.38667 33.2318 8.424C33.3158 8.46133 33.3998 8.52667 33.4838 8.62L38.7478 16.068V8.956C38.7478 8.83467 38.7618 8.732 38.7898 8.648C38.8272 8.564 38.8925 8.49867 38.9858 8.452C39.0792 8.396 39.2145 8.368 39.3918 8.368C39.5598 8.368 39.6858 8.396 39.7698 8.452C39.8632 8.508 39.9238 8.58733 39.9518 8.69C39.9892 8.78333 40.0078 8.89067 40.0078 9.012V17.496C40.0078 17.6173 39.9845 17.7293 39.9378 17.832C39.9005 17.9253 39.8305 18 39.7278 18.056C39.6345 18.112 39.4992 18.14 39.3218 18.14C39.1725 18.14 39.0465 18.1213 38.9438 18.084C38.8505 18.0467 38.7618 17.9767 38.6778 17.874L33.3858 10.482V17.496C33.3858 17.6173 33.3672 17.7293 33.3298 17.832C33.2925 17.9253 33.2272 18 33.1338 18.056C33.0405 18.112 32.9052 18.14 32.7278 18.14ZM46.2646 18.14C46.0873 18.14 45.952 18.112 45.8586 18.056C45.7746 18.0093 45.7186 17.9393 45.6906 17.846C45.6626 17.7433 45.6486 17.6267 45.6486 17.496V8.998C45.6486 8.87667 45.6626 8.76933 45.6906 8.676C45.728 8.58267 45.7933 8.508 45.8866 8.452C45.98 8.396 46.1106 8.368 46.2786 8.368H49.3446C49.7926 8.368 50.2033 8.438 50.5766 8.578C50.9593 8.70867 51.2906 8.914 51.5706 9.194C51.86 9.46467 52.084 9.796 52.2426 10.188C52.4013 10.58 52.4806 11.0327 52.4806 11.546C52.4806 12.05 52.4013 12.498 52.2426 12.89C52.084 13.282 51.86 13.6133 51.5706 13.884C51.2813 14.1453 50.9453 14.346 50.5626 14.486C50.1893 14.626 49.7786 14.696 49.3306 14.696H46.9226V17.51C46.9226 17.6407 46.904 17.7527 46.8666 17.846C46.8386 17.9393 46.778 18.0093 46.6846 18.056C46.6006 18.112 46.4606 18.14 46.2646 18.14ZM46.9226 13.422H49.3446C49.718 13.422 50.0446 13.352 50.3246 13.212C50.6046 13.0627 50.824 12.848 50.9826 12.568C51.1413 12.2787 51.2206 11.9287 51.2206 11.518C51.2206 11.126 51.146 10.79 50.9966 10.51C50.8473 10.23 50.628 10.0153 50.3386 9.866C50.0586 9.71667 49.7226 9.642 49.3306 9.642H46.9226V13.422ZM54.7708 18.14C54.5935 18.14 54.4582 18.112 54.3648 18.056C54.2715 18.0093 54.2108 17.9393 54.1828 17.846C54.1642 17.7433 54.1548 17.6267 54.1548 17.496V8.984C54.1548 8.86267 54.1688 8.76 54.1968 8.676C54.2342 8.58267 54.2948 8.508 54.3788 8.452C54.4722 8.396 54.6075 8.368 54.7848 8.368H57.8788C58.3362 8.368 58.7515 8.438 59.1248 8.578C59.5075 8.70867 59.8388 8.90467 60.1188 9.166C60.3988 9.42733 60.6135 9.75867 60.7628 10.16C60.9215 10.552 61.0008 11.0093 61.0008 11.532C61.0008 11.8587 60.9495 12.1993 60.8468 12.554C60.7442 12.8993 60.5855 13.226 60.3708 13.534C60.1655 13.842 59.8995 14.0987 59.5728 14.304C59.2462 14.5093 58.8495 14.626 58.3828 14.654H55.4148V17.51C55.4148 17.6407 55.3962 17.7527 55.3588 17.846C55.3308 17.9393 55.2702 18.0093 55.1768 18.056C55.0928 18.112 54.9575 18.14 54.7708 18.14ZM60.7768 17.986C60.5808 18.1167 60.4128 18.1587 60.2728 18.112C60.1422 18.0653 60.0162 17.9533 59.8948 17.776L57.6548 14.192L59.0408 13.982L60.9728 17.062C61.0662 17.2113 61.1222 17.3373 61.1408 17.44C61.1688 17.5427 61.1502 17.636 61.0848 17.72C61.0288 17.804 60.9262 17.8927 60.7768 17.986ZM55.4148 13.422H58.1868C58.4015 13.422 58.6022 13.3847 58.7888 13.31C58.9755 13.226 59.1388 13.1047 59.2788 12.946C59.4188 12.7873 59.5308 12.5913 59.6148 12.358C59.6988 12.1247 59.7408 11.8447 59.7408 11.518C59.7408 11.1167 59.6662 10.776 59.5168 10.496C59.3768 10.216 59.1668 10.006 58.8868 9.866C58.6068 9.71667 58.2615 9.642 57.8508 9.642H55.4148V13.422ZM66.8844 18.238C66.2218 18.238 65.5964 18.112 65.0084 17.86C64.4298 17.608 63.9164 17.258 63.4684 16.81C63.0298 16.3527 62.6844 15.83 62.4324 15.242C62.1804 14.654 62.0544 14.0193 62.0544 13.338C62.0544 12.6473 62.1758 11.9987 62.4184 11.392C62.6611 10.776 62.9971 10.2393 63.4264 9.782C63.8651 9.32467 64.3691 8.96533 64.9384 8.704C65.5078 8.44267 66.1144 8.312 66.7584 8.312C67.4304 8.312 68.0558 8.438 68.6344 8.69C69.2224 8.942 69.7311 9.29667 70.1604 9.754C70.5991 10.202 70.9444 10.7293 71.1964 11.336C71.4484 11.9427 71.5744 12.5913 71.5744 13.282C71.5744 13.9633 71.4484 14.6027 71.1964 15.2C70.9538 15.788 70.6178 16.3153 70.1884 16.782C69.7591 17.2393 69.2598 17.5987 68.6904 17.86C68.1304 18.112 67.5284 18.238 66.8844 18.238ZM66.8004 16.964C67.2858 16.964 67.7384 16.8707 68.1584 16.684C68.5878 16.4973 68.9611 16.236 69.2784 15.9C69.5958 15.5547 69.8431 15.1627 70.0204 14.724C70.2071 14.276 70.3004 13.7907 70.3004 13.268C70.3004 12.764 70.2071 12.2927 70.0204 11.854C69.8431 11.406 69.5911 11.014 69.2644 10.678C68.9471 10.3327 68.5784 10.062 68.1584 9.866C67.7384 9.67 67.2904 9.572 66.8144 9.572C66.3384 9.572 65.8904 9.67 65.4704 9.866C65.0504 10.062 64.6771 10.328 64.3504 10.664C64.0331 11 63.7811 11.392 63.5944 11.84C63.4171 12.288 63.3284 12.7687 63.3284 13.282C63.3284 13.786 63.4171 14.262 63.5944 14.71C63.7811 15.158 64.0331 15.55 64.3504 15.886C64.6771 16.222 65.0458 16.488 65.4564 16.684C65.8764 16.8707 66.3244 16.964 66.8004 16.964ZM77.4743 18.168C76.7463 18.168 76.093 18.0513 75.5143 17.818C74.9357 17.5753 74.4363 17.2347 74.0163 16.796C73.6057 16.348 73.2883 15.8113 73.0643 15.186C72.8403 14.5607 72.7283 13.8653 72.7283 13.1C72.7283 12.372 72.8403 11.714 73.0643 11.126C73.2977 10.538 73.629 10.034 74.0583 9.614C74.4877 9.194 75.001 8.86733 75.5983 8.634C76.1957 8.39133 76.8677 8.26533 77.6143 8.256C77.9037 8.256 78.1977 8.284 78.4963 8.34C78.8043 8.396 79.0983 8.47533 79.3783 8.578C79.6583 8.68067 79.9103 8.802 80.1343 8.942C80.293 9.04467 80.4283 9.152 80.5403 9.264C80.6523 9.36667 80.713 9.474 80.7223 9.586C80.7317 9.642 80.7223 9.712 80.6943 9.796C80.6663 9.88 80.629 9.95933 80.5823 10.034C80.5077 10.146 80.4237 10.23 80.3303 10.286C80.2463 10.3327 80.1623 10.356 80.0783 10.356C80.041 10.356 79.9757 10.3327 79.8823 10.286C79.789 10.2393 79.6723 10.1693 79.5323 10.076C79.3737 9.98267 79.187 9.894 78.9723 9.81C78.767 9.726 78.543 9.66067 78.3003 9.614C78.0577 9.56733 77.8057 9.544 77.5443 9.544C76.8257 9.544 76.2003 9.68867 75.6683 9.978C75.1363 10.2673 74.7257 10.6827 74.4363 11.224C74.1563 11.7653 74.0117 12.4047 74.0023 13.142C74.0117 13.9073 74.161 14.57 74.4503 15.13C74.7397 15.69 75.1457 16.124 75.6683 16.432C76.2003 16.74 76.821 16.894 77.5303 16.894C77.7637 16.894 78.0017 16.8753 78.2443 16.838C78.487 16.8007 78.725 16.7493 78.9583 16.684C79.201 16.6093 79.425 16.5207 79.6303 16.418V13.716H77.1803C77.059 13.716 76.9517 13.702 76.8583 13.674C76.7743 13.646 76.709 13.59 76.6623 13.506C76.625 13.422 76.6063 13.296 76.6063 13.128C76.6063 12.96 76.6297 12.834 76.6763 12.75C76.723 12.666 76.7883 12.61 76.8723 12.582C76.9563 12.554 77.059 12.54 77.1803 12.54H80.2183C80.405 12.54 80.545 12.5727 80.6383 12.638C80.7317 12.7033 80.797 12.7873 80.8343 12.89C80.881 12.9833 80.9043 13.1 80.9043 13.24V16.684C80.9043 16.8333 80.8203 16.992 80.6523 17.16C80.4937 17.3187 80.265 17.468 79.9663 17.608C79.7517 17.72 79.509 17.818 79.2383 17.902C78.977 17.986 78.697 18.0513 78.3983 18.098C78.0997 18.1447 77.7917 18.168 77.4743 18.168ZM83.5364 18.14C83.3591 18.14 83.2238 18.112 83.1304 18.056C83.0371 18.0093 82.9764 17.9393 82.9484 17.846C82.9298 17.7433 82.9204 17.6267 82.9204 17.496V8.984C82.9204 8.86267 82.9344 8.76 82.9624 8.676C82.9998 8.58267 83.0604 8.508 83.1444 8.452C83.2378 8.396 83.3731 8.368 83.5504 8.368H86.6444C87.1018 8.368 87.5171 8.438 87.8904 8.578C88.2731 8.70867 88.6044 8.90467 88.8844 9.166C89.1644 9.42733 89.3791 9.75867 89.5284 10.16C89.6871 10.552 89.7664 11.0093 89.7664 11.532C89.7664 11.8587 89.7151 12.1993 89.6124 12.554C89.5098 12.8993 89.3511 13.226 89.1364 13.534C88.9311 13.842 88.6651 14.0987 88.3384 14.304C88.0118 14.5093 87.6151 14.626 87.1484 14.654H84.1804V17.51C84.1804 17.6407 84.1618 17.7527 84.1244 17.846C84.0964 17.9393 84.0358 18.0093 83.9424 18.056C83.8584 18.112 83.7231 18.14 83.5364 18.14ZM89.5424 17.986C89.3464 18.1167 89.1784 18.1587 89.0384 18.112C88.9078 18.0653 88.7818 17.9533 88.6604 17.776L86.4204 14.192L87.8064 13.982L89.7384 17.062C89.8318 17.2113 89.8878 17.3373 89.9064 17.44C89.9344 17.5427 89.9158 17.636 89.8504 17.72C89.7944 17.804 89.6918 17.8927 89.5424 17.986ZM84.1804 13.422H86.9524C87.1671 13.422 87.3678 13.3847 87.5544 13.31C87.7411 13.226 87.9044 13.1047 88.0444 12.946C88.1844 12.7873 88.2964 12.5913 88.3804 12.358C88.4644 12.1247 88.5064 11.8447 88.5064 11.518C88.5064 11.1167 88.4318 10.776 88.2824 10.496C88.1424 10.216 87.9324 10.006 87.6524 9.866C87.3724 9.71667 87.0271 9.642 86.6164 9.642H84.1804V13.422ZM92.2868 18.14C92.1001 18.14 91.9601 18.112 91.8668 18.056C91.7828 18.0093 91.7268 17.9393 91.6988 17.846C91.6708 17.7433 91.6568 17.6267 91.6568 17.496V8.998C91.6568 8.75533 91.7034 8.592 91.7968 8.508C91.8994 8.41467 92.0768 8.368 92.3288 8.368H97.9568C98.0874 8.368 98.1994 8.382 98.2928 8.41C98.3861 8.438 98.4561 8.49867 98.5028 8.592C98.5494 8.68533 98.5728 8.82533 98.5728 9.012C98.5728 9.19867 98.5448 9.33867 98.4888 9.432C98.4421 9.516 98.3721 9.572 98.2788 9.6C98.1854 9.628 98.0734 9.642 97.9428 9.642H92.9168V12.54H96.4168C96.5474 12.54 96.6548 12.554 96.7388 12.582C96.8321 12.61 96.9021 12.666 96.9488 12.75C96.9954 12.834 97.0188 12.9647 97.0188 13.142C97.0188 13.31 96.9954 13.436 96.9488 13.52C96.9021 13.604 96.8321 13.66 96.7388 13.688C96.6454 13.7067 96.5288 13.716 96.3888 13.716H92.9168V16.88H97.9568C98.0874 16.88 98.1994 16.894 98.2928 16.922C98.3861 16.95 98.4561 17.0107 98.5028 17.104C98.5494 17.188 98.5728 17.3233 98.5728 17.51C98.5728 17.6967 98.5448 17.8367 98.4888 17.93C98.4421 18.014 98.3721 18.07 98.2788 18.098C98.1854 18.126 98.0734 18.14 97.9428 18.14H92.2868ZM103.109 18.28C102.755 18.28 102.419 18.238 102.101 18.154C101.793 18.07 101.509 17.958 101.247 17.818C100.995 17.6687 100.771 17.5053 100.575 17.328C100.379 17.1507 100.225 16.9733 100.113 16.796C100.011 16.6467 99.9454 16.5253 99.9174 16.432C99.8894 16.3293 99.8941 16.2313 99.9314 16.138C99.9781 16.0447 100.067 15.942 100.197 15.83C100.347 15.718 100.477 15.6667 100.589 15.676C100.701 15.676 100.804 15.718 100.897 15.802C101 15.886 101.103 15.998 101.205 16.138C101.439 16.4553 101.723 16.6887 102.059 16.838C102.395 16.978 102.727 17.048 103.053 17.048C103.473 17.048 103.847 16.992 104.173 16.88C104.5 16.768 104.757 16.6 104.943 16.376C105.139 16.1427 105.237 15.844 105.237 15.48C105.237 15.1813 105.163 14.9293 105.013 14.724C104.864 14.5187 104.663 14.346 104.411 14.206C104.159 14.0567 103.879 13.9307 103.571 13.828C103.263 13.716 102.951 13.6087 102.633 13.506C102.381 13.422 102.134 13.3287 101.891 13.226C101.649 13.114 101.42 12.9927 101.205 12.862C100.991 12.722 100.799 12.5587 100.631 12.372C100.473 12.1853 100.347 11.966 100.253 11.714C100.169 11.462 100.127 11.168 100.127 10.832C100.127 10.3187 100.249 9.866 100.491 9.474C100.743 9.082 101.093 8.77867 101.541 8.564C101.989 8.34 102.507 8.228 103.095 8.228C103.441 8.228 103.758 8.26067 104.047 8.326C104.337 8.39133 104.593 8.48 104.817 8.592C105.041 8.69467 105.233 8.80667 105.391 8.928C105.55 9.04 105.671 9.14733 105.755 9.25C105.923 9.42733 106.017 9.57667 106.035 9.698C106.054 9.81933 105.984 9.96867 105.825 10.146C105.676 10.314 105.531 10.4027 105.391 10.412C105.251 10.4213 105.097 10.356 104.929 10.216C104.752 10.0107 104.565 9.852 104.369 9.74C104.183 9.628 103.982 9.55333 103.767 9.516C103.562 9.46933 103.333 9.446 103.081 9.446C102.839 9.446 102.61 9.47867 102.395 9.544C102.19 9.6 102.008 9.68867 101.849 9.81C101.7 9.93133 101.583 10.0807 101.499 10.258C101.415 10.426 101.373 10.622 101.373 10.846C101.373 11.098 101.439 11.3127 101.569 11.49C101.709 11.6673 101.891 11.8213 102.115 11.952C102.339 12.0733 102.591 12.1853 102.871 12.288C103.151 12.3813 103.445 12.4747 103.753 12.568C104.089 12.6707 104.421 12.7967 104.747 12.946C105.074 13.086 105.368 13.2633 105.629 13.478C105.891 13.6833 106.101 13.9447 106.259 14.262C106.418 14.5793 106.497 14.9713 106.497 15.438C106.497 15.9047 106.404 16.3153 106.217 16.67C106.04 17.0247 105.793 17.3233 105.475 17.566C105.158 17.7993 104.794 17.9767 104.383 18.098C103.982 18.2193 103.557 18.28 103.109 18.28ZM110.861 18.28C110.507 18.28 110.171 18.238 109.853 18.154C109.545 18.07 109.261 17.958 108.999 17.818C108.747 17.6687 108.523 17.5053 108.327 17.328C108.131 17.1507 107.977 16.9733 107.865 16.796C107.763 16.6467 107.697 16.5253 107.669 16.432C107.641 16.3293 107.646 16.2313 107.683 16.138C107.73 16.0447 107.819 15.942 107.949 15.83C108.099 15.718 108.229 15.6667 108.341 15.676C108.453 15.676 108.556 15.718 108.649 15.802C108.752 15.886 108.855 15.998 108.957 16.138C109.191 16.4553 109.475 16.6887 109.811 16.838C110.147 16.978 110.479 17.048 110.805 17.048C111.225 17.048 111.599 16.992 111.925 16.88C112.252 16.768 112.509 16.6 112.695 16.376C112.891 16.1427 112.989 15.844 112.989 15.48C112.989 15.1813 112.915 14.9293 112.765 14.724C112.616 14.5187 112.415 14.346 112.163 14.206C111.911 14.0567 111.631 13.9307 111.323 13.828C111.015 13.716 110.703 13.6087 110.385 13.506C110.133 13.422 109.886 13.3287 109.643 13.226C109.401 13.114 109.172 12.9927 108.957 12.862C108.743 12.722 108.551 12.5587 108.383 12.372C108.225 12.1853 108.099 11.966 108.005 11.714C107.921 11.462 107.879 11.168 107.879 10.832C107.879 10.3187 108.001 9.866 108.243 9.474C108.495 9.082 108.845 8.77867 109.293 8.564C109.741 8.34 110.259 8.228 110.847 8.228C111.193 8.228 111.51 8.26067 111.799 8.326C112.089 8.39133 112.345 8.48 112.569 8.592C112.793 8.69467 112.985 8.80667 113.143 8.928C113.302 9.04 113.423 9.14733 113.507 9.25C113.675 9.42733 113.769 9.57667 113.787 9.698C113.806 9.81933 113.736 9.96867 113.577 10.146C113.428 10.314 113.283 10.4027 113.143 10.412C113.003 10.4213 112.849 10.356 112.681 10.216C112.504 10.0107 112.317 9.852 112.121 9.74C111.935 9.628 111.734 9.55333 111.519 9.516C111.314 9.46933 111.085 9.446 110.833 9.446C110.591 9.446 110.362 9.47867 110.147 9.544C109.942 9.6 109.76 9.68867 109.601 9.81C109.452 9.93133 109.335 10.0807 109.251 10.258C109.167 10.426 109.125 10.622 109.125 10.846C109.125 11.098 109.191 11.3127 109.321 11.49C109.461 11.6673 109.643 11.8213 109.867 11.952C110.091 12.0733 110.343 12.1853 110.623 12.288C110.903 12.3813 111.197 12.4747 111.505 12.568C111.841 12.6707 112.173 12.7967 112.499 12.946C112.826 13.086 113.12 13.2633 113.381 13.478C113.643 13.6833 113.853 13.9447 114.011 14.262C114.17 14.5793 114.249 14.9713 114.249 15.438C114.249 15.9047 114.156 16.3153 113.969 16.67C113.792 17.0247 113.545 17.3233 113.227 17.566C112.91 17.7993 112.546 17.9767 112.135 18.098C111.734 18.2193 111.309 18.28 110.861 18.28Z" fill="#FFFFFE"/>
</svg>
