<svg width="76" height="25" viewBox="0 0 76 25" fill="none" xmlns="http://www.w3.org/2000/svg">
<rect width="76" height="25" rx="12.5" fill="#BFBFBE"/>
<circle cx="16.5" cy="12.5" r="8" stroke="#000001"/>
<path d="M37.386 8.368C37.5073 8.368 37.6053 8.382 37.68 8.41C37.764 8.438 37.8293 8.494 37.876 8.578C37.9226 8.65267 37.946 8.77867 37.946 8.956C37.946 9.124 37.918 9.25 37.862 9.334C37.8153 9.418 37.75 9.474 37.666 9.502C37.582 9.52067 37.4793 9.53 37.358 9.53H34.46V17.524C34.46 17.6453 34.4413 17.7527 34.404 17.846C34.376 17.9393 34.3153 18.0093 34.222 18.056C34.138 18.112 34.0073 18.14 33.83 18.14C33.6433 18.14 33.5033 18.112 33.41 18.056C33.326 18.0093 33.27 17.9393 33.242 17.846C33.2233 17.7433 33.214 17.6313 33.214 17.51V9.53H30.274C30.1526 9.53 30.05 9.52067 29.966 9.502C29.882 9.474 29.8166 9.418 29.77 9.334C29.7233 9.25 29.7 9.124 29.7 8.956C29.7 8.77867 29.7186 8.65267 29.756 8.578C29.8026 8.494 29.868 8.438 29.952 8.41C30.0453 8.382 30.148 8.368 30.26 8.368H37.386ZM42.8249 18.238C42.1622 18.238 41.5369 18.112 40.9489 17.86C40.3702 17.608 39.8569 17.258 39.4089 16.81C38.9702 16.3527 38.6249 15.83 38.3729 15.242C38.1209 14.654 37.9949 14.0193 37.9949 13.338C37.9949 12.6473 38.1162 11.9987 38.3589 11.392C38.6015 10.776 38.9375 10.2393 39.3669 9.782C39.8055 9.32467 40.3095 8.96533 40.8789 8.704C41.4482 8.44267 42.0549 8.312 42.6989 8.312C43.3709 8.312 43.9962 8.438 44.5749 8.69C45.1629 8.942 45.6715 9.29667 46.1009 9.754C46.5395 10.202 46.8849 10.7293 47.1369 11.336C47.3889 11.9427 47.5149 12.5913 47.5149 13.282C47.5149 13.9633 47.3889 14.6027 47.1369 15.2C46.8942 15.788 46.5582 16.3153 46.1289 16.782C45.6995 17.2393 45.2002 17.5987 44.6309 17.86C44.0709 18.112 43.4689 18.238 42.8249 18.238ZM42.7409 16.964C43.2262 16.964 43.6789 16.8707 44.0989 16.684C44.5282 16.4973 44.9015 16.236 45.2189 15.9C45.5362 15.5547 45.7835 15.1627 45.9609 14.724C46.1475 14.276 46.2409 13.7907 46.2409 13.268C46.2409 12.764 46.1475 12.2927 45.9609 11.854C45.7835 11.406 45.5315 11.014 45.2049 10.678C44.8875 10.3327 44.5189 10.062 44.0989 9.866C43.6789 9.67 43.2309 9.572 42.7549 9.572C42.2789 9.572 41.8309 9.67 41.4109 9.866C40.9909 10.062 40.6175 10.328 40.2909 10.664C39.9735 11 39.7215 11.392 39.5349 11.84C39.3575 12.288 39.2689 12.7687 39.2689 13.282C39.2689 13.786 39.3575 14.262 39.5349 14.71C39.7215 15.158 39.9735 15.55 40.2909 15.886C40.6175 16.222 40.9862 16.488 41.3969 16.684C41.8169 16.8707 42.2649 16.964 42.7409 16.964ZM49.4108 18.14C49.2521 18.14 49.1261 18.112 49.0328 18.056C48.9488 18 48.8881 17.9253 48.8508 17.832C48.8134 17.7293 48.7948 17.6173 48.7948 17.496V8.984C48.7948 8.86267 48.8088 8.75533 48.8368 8.662C48.8741 8.56867 48.9394 8.494 49.0328 8.438C49.1261 8.382 49.2568 8.354 49.4248 8.354L52.1828 8.368C52.8734 8.368 53.4988 8.48467 54.0588 8.718C54.6281 8.942 55.1134 9.264 55.5148 9.684C55.9161 10.104 56.2241 10.6127 56.4388 11.21C56.6534 11.8073 56.7608 12.47 56.7608 13.198C56.7608 13.954 56.6534 14.6353 56.4388 15.242C56.2241 15.8487 55.9114 16.3667 55.5008 16.796C55.0994 17.2253 54.6141 17.5567 54.0448 17.79C53.4754 18.0233 52.8408 18.14 52.1408 18.14H49.4108ZM50.0548 16.866H52.1828C52.8641 16.866 53.4521 16.7213 53.9468 16.432C54.4414 16.1333 54.8241 15.718 55.0948 15.186C55.3654 14.6447 55.5008 14.0053 55.5008 13.268C55.5008 12.5213 55.3654 11.8773 55.0948 11.336C54.8241 10.7947 54.4368 10.3793 53.9328 10.09C53.4381 9.79133 52.8501 9.642 52.1688 9.642H50.0548V16.866ZM62.7721 18.238C62.1095 18.238 61.4841 18.112 60.8961 17.86C60.3175 17.608 59.8041 17.258 59.3561 16.81C58.9175 16.3527 58.5721 15.83 58.3201 15.242C58.0681 14.654 57.9421 14.0193 57.9421 13.338C57.9421 12.6473 58.0635 11.9987 58.3061 11.392C58.5488 10.776 58.8848 10.2393 59.3141 9.782C59.7528 9.32467 60.2568 8.96533 60.8261 8.704C61.3955 8.44267 62.0021 8.312 62.6461 8.312C63.3181 8.312 63.9435 8.438 64.5221 8.69C65.1101 8.942 65.6188 9.29667 66.0481 9.754C66.4868 10.202 66.8321 10.7293 67.0841 11.336C67.3361 11.9427 67.4621 12.5913 67.4621 13.282C67.4621 13.9633 67.3361 14.6027 67.0841 15.2C66.8415 15.788 66.5055 16.3153 66.0761 16.782C65.6468 17.2393 65.1475 17.5987 64.5781 17.86C64.0181 18.112 63.4161 18.238 62.7721 18.238ZM62.6881 16.964C63.1735 16.964 63.6261 16.8707 64.0461 16.684C64.4755 16.4973 64.8488 16.236 65.1661 15.9C65.4835 15.5547 65.7308 15.1627 65.9081 14.724C66.0948 14.276 66.1881 13.7907 66.1881 13.268C66.1881 12.764 66.0948 12.2927 65.9081 11.854C65.7308 11.406 65.4788 11.014 65.1521 10.678C64.8348 10.3327 64.4661 10.062 64.0461 9.866C63.6261 9.67 63.1781 9.572 62.7021 9.572C62.2261 9.572 61.7781 9.67 61.3581 9.866C60.9381 10.062 60.5648 10.328 60.2381 10.664C59.9208 11 59.6688 11.392 59.4821 11.84C59.3048 12.288 59.2161 12.7687 59.2161 13.282C59.2161 13.786 59.3048 14.262 59.4821 14.71C59.6688 15.158 59.9208 15.55 60.2381 15.886C60.5648 16.222 60.9335 16.488 61.3441 16.684C61.7641 16.8707 62.2121 16.964 62.6881 16.964Z" fill="#0F0F0F"/>
</svg>
